<?xml version="1.0" encoding="utf-8"?>
<!-- Generator: Adobe Illustrator 14.0.0, SVG Export Plug-In . SVG Version: 6.00 Build 43363)  -->
<!DOCTYPE svg PUBLIC "-//W3C//DTD SVG 1.1//EN" "http://www.w3.org/Graphics/SVG/1.1/DTD/svg11.dtd">
<svg version="1.1" id="Layer_1" xmlns="http://www.w3.org/2000/svg" xmlns:xlink="http://www.w3.org/1999/xlink" x="0px" y="0px"
	 width="728.5px" height="727.183px" viewBox="0 0 728.5 727.183" enable-background="new 0 0 728.5 727.183" xml:space="preserve">
<path d="M365.002,0C164.163,0,1.339,162.852,1.339,363.661c0,200.84,162.824,363.633,363.663,363.633
	c200.84,0,363.662-162.793,363.662-363.633C728.664,162.852,565.842,0,365.002,0z"/>
<path id="path2625" fill="#FFFFFF" stroke="#000000" stroke-width="20" d="M506.618,444.156l-80.563-80.561l-22.422,22.202
	c-23.173,22.944-30.83,28.354-39.97,28.239c-7.867-0.102-11.174-2.523-36.902-27.016l-23.439-22.31l-79.775,78.341
	c-43.877,43.088-79.776,79.087-79.776,80.001c0,0.938,96.819,1.664,221.702,1.664h221.703L506.618,444.156z M212.903,272.498
	l-80.574-80.574v161.148V514.22l80.574-80.573l80.574-80.575L212.903,272.498z M597.673,352.912
	c0-88.196-0.689-160.072-1.528-159.723c-0.841,0.351-37.048,36.515-80.463,80.367l-78.933,79.728l79.978,79.999
	c43.986,43.993,80.194,79.99,80.463,79.99C597.455,513.273,597.673,441.112,597.673,352.912z M477.731,291.573l107.957-109.19
	l-110.34-0.491c-60.69-0.271-160.334-0.271-221.428,0l-111.08,0.491l108.696,109.244C338.054,378.579,361.205,400.86,365,400.816
	C368.744,400.774,392.978,377.287,477.731,291.573z"/>
</svg>
